<svg width="48" height="44" viewBox="0 0 48 44" fill="none" xmlns="http://www.w3.org/2000/svg">
<path d="M5.03945 43.4124H42.9606C46.8383 43.4124 49.2556 39.2074 47.3167 35.8584L28.3561 3.09923C26.4173 -0.249711 21.5827 -0.249711 19.6439 3.09923L0.683313 35.8584C-1.25555 39.2074 1.16173 43.4124 5.03945 43.4124ZM24 25.7864C22.6151 25.7864 21.482 24.6533 21.482 23.2684V18.2324C21.482 16.8475 22.6151 15.7144 24 15.7144C25.3849 15.7144 26.518 16.8475 26.518 18.2324V23.2684C26.518 24.6533 25.3849 25.7864 24 25.7864ZM26.518 35.8584H21.482V30.8224H26.518V35.8584Z" fill="#EC8701"/>
</svg>
